<svg id="Capa_1" data-name="Capa 1" xmlns="http://www.w3.org/2000/svg" viewBox="0 0 362.55 362.55"><defs><style>.cls-1{fill:#fff;}.cls-2{fill:#fe6146;}</style></defs><circle class="cls-1" cx="181.28" cy="181.28" r="181.28"/><path class="cls-2" d="M139.58,224c-4.58-3.19-9.06-6-13.19-9.24-9.27-7.28-16.5-16.22-20.67-27.36-2.48-6.63-3-13.47-.52-20.22,3.5-9.47,11.1-13.51,20.55-14.46,16.58-1.65,29.76,4.87,40.15,17.51,2.84,3.46,5.44,7.12,8.4,11,1.19-1.39,2.5-2.8,3.69-4.3,17.06-21.61,34-43.33,51.19-64.83,8.86-11,18-21.9,28.95-31A64.65,64.65,0,0,1,270.2,73.4c2-1,4.63-1.09,7-1,3.44.12,6,2.07,6.08,5.44a52.67,52.67,0,0,1-1.12,13.85,143.14,143.14,0,0,1-5.73,17.62c-13.3,35.47-30.5,69.17-46.8,103.28-3.05,6.37-6.13,12.73-9.44,19.62,2.33-.17,4.24-.28,6.15-.46,9.08-.86,18-2.49,26.34-6.38a37.59,37.59,0,0,0,3.86-2.68,26,26,0,0,1,2.82-1.34c.58,1.26,1.95,2.86,1.58,3.73-.72,1.7-2.13,3.71-3.73,4.31a119.67,119.67,0,0,1-17.35,5.31c-6.52,1.35-13.22,1.88-19.87,2.58a3.57,3.57,0,0,0-3.28,2.41c-4.31,9.44-8.71,18.84-13.06,28.26-1,2.18-1.76,4.78-4.87,4.36s-4.3-2.92-4.74-5.77c-1.34-8.76-2.73-17.52-3.95-26.31-.28-2.06-1-2.84-3.12-3a133.9,133.9,0,0,1-36.32-8.45c-1.85-.72-2.85-.25-4,1.2-17.11,21.15-36.41,40.22-56.25,58.77a4.87,4.87,0,0,1-6.31.58c-1.93-1.26-3.34-3.42-4.72-5.37-.23-.31.68-1.81,1.38-2.34,17.67-13.22,32.84-29.09,47.83-45.14C132.25,232.43,135.8,228.24,139.58,224Zm63.51,8.51c6.41.5,6.39.49,9.21-5.49,10-21.29,20.39-42.43,30-63.91,9.79-21.93,19-44.15,28.09-66.36a43.88,43.88,0,0,0,2.77-13.31c.24-3.1-2.06-4.41-4.86-3a33.67,33.67,0,0,0-9,6.27A281.2,281.2,0,0,0,240.47,108c-20.31,26.15-40.31,52.55-60.48,78.8-1.3,1.69-1.16,3-.42,4.82,4.15,10.46,8.41,20.88,12,31.53C194.44,231.64,194,231.78,203.09,232.48Zm-56.32-16.89c7.85-9.57,15.58-18.93,23.18-28.41a3.32,3.32,0,0,0,0-3.08,102.17,102.17,0,0,0-7.75-11c-7.66-8.93-16.88-15.19-29.15-15.53-5.86-.17-11.65.28-16.29,4.48-5.15,4.65-6.17,12.83-2.51,20.5C121.17,197.17,132.64,207.36,146.77,215.59Zm28.29-22.09c-6.95,9-13.65,17.69-20.4,26.42,7.66,4.23,26.65,10.63,33,10.16C184.56,217.59,180.88,205.41,175.06,193.5Zm20.41,44.64c1,5.64,2,11,3,16.42l.78.15,7.8-16.57Z" transform="translate(0)"/></svg>