<svg id="Logo" xmlns="http://www.w3.org/2000/svg" viewBox="0 0 459.64 102.73"><defs><style>.cls-1{fill:#fe5e43;}.cls-2{fill:#fe5f43;}</style></defs><path class="cls-1" d="M.24,59.62a12.92,12.92,0,0,1,2.35-5.5,27.5,27.5,0,0,1,3-3.11c5.05-4.28,11.33-5.75,17.58-7.06a8,8,0,0,0,5.46-3.54C37.39,27.67,46.33,15.05,55.13,2.33A4.89,4.89,0,0,1,59.57,0C64.66-.08,69.35,1.3,74,3.19c-2,12.4-4,24.48-6,36.57q-2.27,14-4.43,28.06a18.93,18.93,0,0,0-.17,3.28c.06,2.64,1.58,4.38,3.91,3.57a105.76,105.76,0,0,0,13-5.79c.74-.38,1-2.07,1.13-3.2,2.92-18.43,21.77-29.43,38.93-22.41A19.71,19.71,0,0,1,128,49.19c3.73,4.73,2.15,11-3,14.21a15,15,0,0,1-10.88,2.16c.73-2,1.51-3.87,2.12-5.81,1.35-4.3.73-7.42-1.68-9-2.84-1.87-7.31-1.49-10.27,1.28-6.55,6.12-9,13.81-7.53,22.55,1.07,6.32,5.8,9.91,12.43,9.82,10.4-.15,18.24-5.68,25.37-12.52a4.32,4.32,0,0,0,.83-2.18c1.43-6.93,2.91-13.86,4.18-20.83.35-1.93,1.17-2.89,3-2.87a47,47,0,0,1,7.71.38c3,.53,4.35,3.43,3.59,7.14-1.8,8.79-3.69,17.55-5.56,26.33-.63,2.91-1.17,6,1.6,8,3,2.07,6.34,1.33,9.34-.42a7.62,7.62,0,0,0,3.81-5.67c1.74-9.62,3.8-19.17,5.92-28.71a5.19,5.19,0,0,1,2.37-3.08c4.26-2.23,8.62-1.93,13.1,0-2.32,11.24-4.61,22.25-6.85,33.27a24.49,24.49,0,0,0-.53,4.74c0,3.25,1.63,4.32,4.66,3.27,4.35-1.51,8.87-7.45,9.08-12.06.49-10.85,4.53-19.76,14.15-25.51,7.24-4.33,15.08-4.66,23.18-3.22a25.43,25.43,0,0,0,5.44-.07c2.77-.13,5.53-.44,8.3-.42,1.94,0,2.55,1.07,2.25,3.18-1.54,10.75-2.91,21.53-4.26,32.31-.3,2.42-1,5.15,1.71,6.75,1.92,1.14,5,0,7.11-3.12,1.87-2.78,3.08-6,4.71-8.95a14.17,14.17,0,0,1,2.1-2.38l.67.42c.46-8.26,1-16.52,1.32-24.79.08-2.38.9-3.43,3.16-3.68,1.39-.15,2.74-.57,4.12-.74,3.41-.42,6.43.11,8,4.1a15,15,0,0,1,12.69-5.12c5.45.41,8.83,3.53,8.66,8.29-.17,4.51-4.42,8-9.69,7.78a12.59,12.59,0,0,1-.2-1.41c-.13-2.62-.86-4.78-4-5-2.74-.19-6.74,2.73-6.9,5.21-.05.72.83,1.67,1.52,2.22,5.12,4.09,9.12,8.9,10.59,15.48,2.94,13.18-6.5,23.35-19.36,20.86a10.87,10.87,0,0,1-7.92-6.22c-.72-1.4-1.24-2.89-1.87-4.4-11,14-21,15.7-30.1,5.25-9.85,10.41-25.43,8-33.3-4.3-3.56,5.23-8.23,8.91-14.51,9.46s-11.83-1.5-14.86-7.7c-15.46,10.26-28.61,6.22-31.3-9.95-1.26.9-2.34,1.69-3.44,2.44-9.23,6.27-19.25,9.09-30.34,6.54-7.64-1.75-12.91-6.44-15.9-13.67-.22-.53-.52-1-.82-1.61-3.06,1.74-5.94,3.49-8.92,5.05A21.29,21.29,0,0,1,59,84.5c-5-.88-9.07-4.25-9.12-9.26-.06-6.93.85-13.87,1.42-20.8.15-1.87.56-3.72.94-6.08-5.23.32-10.18.54-15.11,1-.75.07-1.53,1.14-2.07,1.91-3.2,4.58-6.23,9.27-9.51,13.79-4.25,5.85-9.84,9.3-17.24,7.34a14.4,14.4,0,0,1-6.69-4A5.35,5.35,0,0,1,.06,65.05,28.82,28.82,0,0,1,.24,59.62ZM222.11,58.1a12.65,12.65,0,0,0-9.52,3.57c-5.29,4.93-8.17,18.51-5.38,25.16,2.38,5.68,8.92,7.47,13.53,3.57a14.12,14.12,0,0,0,5.1-9.49c.67-6,1.31-12.06,2-18.08.43-3.75.11-4.21-3.66-4.62C223.51,58.14,222.81,58.14,222.11,58.1ZM41.62,41.25c3-.19,5.44-.46,7.88-.45,2.94,0,4.66-.92,4.61-4.23a30,30,0,0,1,.82-5q1-6.16,1.88-12.32l-.56-.17ZM271.56,71.51c-.38,5.58-.8,10.43-1,15.29-.08,2.16.45,4.3,3.11,4.76,2.25.4,4.52-1.55,4.94-4.21C279.63,80.88,276.94,76,271.56,71.51ZM20.35,52.11l-.51-.56a15.18,15.18,0,0,0-3.35,1c-2.53,1.47-5.23,2.85-7.27,4.86-.81.78-.69,3.65.13,4.69,1.38,1.74,3.14.26,4.2-1.05C15.91,58.17,18.09,55.11,20.35,52.11Z"/><path class="cls-2" d="M397.38,70.58c-2.72,3.83-5,8-8.18,11.3a20.14,20.14,0,0,1-16.5,6.37c-6.9-.44-11.29-5.08-12-12.65q-2-20.4-3.54-40.84c-.45-5.85-1.12-11.78-.58-17.58.89-9.62,10.9-15.49,20.2-12.46,3.71,1.21,5.94,3.92,7.15,7.51,2.45,7.3,1.49,14.48-1.55,21.28-2.18,4.89-5.24,9.38-7.77,14.12A8.89,8.89,0,0,0,373.32,52c.38,6.37,1,12.72,1.63,19.07.23,2.41.56,5,3.27,5.9,2.9,1,5.41-.33,7.29-2.31a23.68,23.68,0,0,0,6.87-18.51c-.86-11.51,2.67-20.87,12.3-27.47a31.43,31.43,0,0,1,17.48-5.38A9.48,9.48,0,0,0,426.5,22a18.06,18.06,0,0,1,10.88-2.72c.59,4.16,1.18,8.27,1.75,12.37,1,7.4,2,14.81,3.05,22.22a6,6,0,0,0,.58,2.3c.84,1.35,1.86,3.58,2.86,3.61a6,6,0,0,0,4.61-2.38,42.85,42.85,0,0,0,3.31-9.15,30.74,30.74,0,0,0,.59-5.35c4.81,2,5.76,3.42,5.46,8.09-.34,5.41-1.88,10.35-5.57,14.51-5.95,6.69-14.81,7.66-22.26,2.08a19.27,19.27,0,0,1-16.5,11A19.71,19.71,0,0,1,397.38,70.58ZM424.14,32c-6.83-.81-12.53,1.65-14.8,6.66-3.66,8.07-2.86,16.27.92,24,2.89,5.89,10.61,6.86,14.11,1.85,1.87-2.69,3.35-6.49,3.13-9.65C427,47.24,425.34,39.7,424.14,32Zm-52.51,5.56,1,.13c2.53-4.37,4.8-8.91,5.34-14a25.79,25.79,0,0,0-.51-7.37c-.37-2-1.67-3.45-4-3.08a3.43,3.43,0,0,0-3,3.89C370.72,24,371.21,30.78,371.63,37.59Z"/><path class="cls-1" d="M351.12,67.29c0,19.39-16.46,32.67-35.24,28.43-10.16-2.3-16.94-11.32-17.35-23.06-.53-15.12,9-26.66,24.27-29.42,10.89-2,20.16,1.86,25.29,10.5C350.56,57.91,351.15,62.54,351.12,67.29Zm-14.94,3.06c-.13-5-1-9.88-3.83-14.18a8.76,8.76,0,0,0-14.63-.56c-4.86,6.64-5.13,20.5-.53,27.34a9,9,0,0,0,15.32.17C335.19,79.32,336.06,75,336.18,70.35Z"/></svg>