<svg id="Favicon" xmlns="http://www.w3.org/2000/svg" viewBox="0 0 204.03 217.82"><defs><style>.cls-1{fill:#fe6146;}</style></defs><path class="cls-1" d="M60.32,151.6c-4.58-3.18-9.06-6-13.2-9.24-9.27-7.28-16.49-16.22-20.66-27.36-2.48-6.63-3-13.46-.52-20.21,3.5-9.47,11.1-13.52,20.55-14.46,16.58-1.66,29.75,4.86,40.15,17.5,2.84,3.46,5.44,7.12,8.4,11,1.19-1.38,2.5-2.79,3.69-4.3,17.06-21.61,34-43.33,51.19-64.82,8.85-11.06,18-21.91,29-31A65.7,65.7,0,0,1,190.94,1c2-1,4.63-1.08,7-1,3.44.12,6,2.07,6.08,5.44a52.78,52.78,0,0,1-1.12,13.86,144.25,144.25,0,0,1-5.73,17.62c-13.3,35.46-30.5,69.16-46.8,103.27-3.05,6.38-6.13,12.74-9.44,19.62,2.33-.17,4.24-.27,6.15-.46,9.08-.86,18-2.49,26.33-6.37a39.47,39.47,0,0,0,3.87-2.69,25.14,25.14,0,0,1,2.82-1.34c.58,1.27,1.95,2.87,1.58,3.73-.72,1.7-2.13,3.72-3.73,4.31a119.71,119.71,0,0,1-17.35,5.32c-6.53,1.34-13.23,1.88-19.87,2.57a3.59,3.59,0,0,0-3.29,2.42c-4.31,9.43-8.7,18.83-13.05,28.25-1,2.19-1.76,4.78-4.87,4.36s-4.3-2.91-4.74-5.76c-1.34-8.77-2.73-17.53-3.95-26.32-.28-2.06-1-2.83-3.12-3a133.8,133.8,0,0,1-36.32-8.44c-1.85-.73-2.85-.26-4,1.19-17.11,21.16-36.41,40.22-56.26,58.77a4.85,4.85,0,0,1-6.3.58c-1.94-1.26-3.34-3.42-4.73-5.37-.22-.31.68-1.81,1.39-2.33C19.08,196,34.26,180.13,49.25,164.07,53,160.06,56.53,155.88,60.32,151.6Zm63.51,8.51c6.4.5,6.39.49,9.21-5.49,10-21.29,20.39-42.42,30-63.91,9.79-21.93,18.95-44.14,28.09-66.36a43.75,43.75,0,0,0,2.77-13.3c.23-3.11-2.06-4.42-4.87-3a33.62,33.62,0,0,0-9,6.27C173.54,21.2,167,28.13,161.21,35.59c-20.32,26.15-40.31,52.55-60.49,78.81-1.29,1.68-1.15,2.94-.41,4.82,4.15,10.45,8.41,20.88,12,31.53C115.18,159.27,114.78,159.41,123.83,160.11ZM67.51,143.23c7.85-9.57,15.58-18.94,23.18-28.41a3.34,3.34,0,0,0,0-3.09,101.84,101.84,0,0,0-7.76-11C75.25,91.83,66,85.57,53.76,85.23c-5.86-.17-11.65.28-16.29,4.48-5.15,4.66-6.17,12.83-2.51,20.5C41.91,124.8,53.38,135,67.51,143.23Zm28.29-22.1L75.4,147.55c7.65,4.23,26.64,10.63,33,10.16C105.29,145.23,101.62,133,95.8,121.13Zm20.41,44.64c1,5.64,2,11,3,16.42l.78.15,7.8-16.57Z"/></svg>